# File created by Blade
# Date/Time:  Tue Sep 30 19:36:50 2014
#---------------------------------------------------------
:version 1.10
:name HOM
:units
  mass 1.0
  length 1.000000
  angle deg
:documentation
     Acclaim Skeleton File
:root
   axis xyz
   order TX TY TZ RX RY RZ
   position 0.000000 0.000000 0.000000
   orientation 0 0 0
:bonedata
   begin
      id 1
      name Spine_dum
      direction 0.000000 1.000000 0.000000
      length 3.241213
      axis 0.0 0.0 0.0 xyz
   end
   begin
      id 2
      name LeftUpLeg_dum
      direction 1.000000 0.000000 0.000000
      length 3.434019
      axis 0.0 0.0 0.0 xyz
   end
   begin
      id 3
      name RightUpLeg_dum
      direction -1.000000 0.000000 0.000000
      length 3.434019
      axis 0.0 0.0 0.0 xyz
   end
   begin
      id 4
      name Spine
      direction 0.000000 1.000000 0.000000
      length 0.000000
      axis 0.0 0.0 0.0 xyz
      dof rx ry rz
   end
   begin
      id 5
      name Spine_dum1
      direction 0.000000 1.000000 0.000000
      length 18.382958
      axis 0.0 0.0 0.0 xyz
   end
   begin
      id 6
      name Spine_dum2
      direction 0.000000 1.000000 0.000000
      length 12.828261
      axis 0.0 0.0 0.0 xyz
   end
   begin
      id 7
      name Spine_dum3
      direction 0.000000 1.000000 0.000000
      length 12.828261
      axis 0.0 0.0 0.0 xyz
   end
   begin
      id 8
      name Head
      direction 0.000000 1.000000 0.000000
      length 4.527550
      axis 0.0 0.0 0.0 xyz
      dof rx ry rz
   end
   begin
      id 9
      name LeftShoulder
      direction 1.000000 0.000000 0.000000
      length 7.748055
      axis 0.0 0.0 -90.0 xyz
      dof rx ry rz
   end
   begin
      id 10
      name LeftArm
      direction 1.000000 0.000000 0.000000
      length 10.635614
      axis 0.0 0.0 -90.0 xyz
      dof rx ry rz
   end
   begin
      id 11
      name LeftForeArm
      direction 1.000000 0.000000 0.000000
      length 8.346755
      axis 0.0 0.0 -90.0 xyz
      dof ry rz rx
   end
   begin
      id 12
      name LeftHand
      direction 0.000000 0.000000 0.000000
      length 0.000000
      axis 0.0 0.0 -90.0 xyz
      dof rx ry rz
   end
   begin
      id 13
      name LeftHand_dum1
      direction 0.000000 0.000000 0.000000
      length 0.000000
      axis 0.0 0.0 -90.0 xyz
   end
   begin
      id 14
      name LeftHand_dum2
      direction 1.000000 0.000000 0.000000
      length 3.937000
      axis 0.0 0.0 -90.0 xyz
   end
   begin
      id 15
      name LeftHandThumb1
      direction 0.000000 0.000000 1.000000
      length 3.937000
      axis 0.0 0.0 -90.0 xyz
      dof rx rz ry
   end
   begin
      id 16
      name RightShoulder
      direction -1.000000 0.000000 0.000000
      length 7.748055
      axis 0.0 0.0 90.0 xyz
      dof rx ry rz
   end
   begin
      id 17
      name RightArm
      direction -1.000000 0.000000 0.000000
      length 10.635614
      axis 0.0 0.0 90.0 xyz
      dof rx ry rz
   end
   begin
      id 18
      name RightForeArm
      direction -1.000000 0.000000 0.000000
      length 8.346755
      axis 0.0 0.0 90.0 xyz
      dof ry rz rx
   end
   begin
      id 19
      name RightHand
      direction 0.000000 0.000000 0.000000
      length 0.000000
      axis 0.0 0.0 90.0 xyz
      dof rx ry rz
   end
   begin
      id 20
      name RightHand_dum1
      direction 0.000000 0.000000 0.000000
      length 0.000000
      axis 0.0 0.0 90.0 xyz
   end
   begin
      id 21
      name RightHand_dum2
      direction -1.000000 0.000000 0.000000
      length 3.937000
      axis 0.0 0.0 90.0 xyz
   end
   begin
      id 22
      name RightHandThumb1
      direction 0.000000 0.000000 1.000000
      length 3.937000
      axis 0.0 0.0 90.0 xyz
      dof rx rz ry
   end
   begin
      id 23
      name LeftUpLeg
      direction 0.000000 -1.000000 0.000000
      length 15.713025
      axis 0.0 0.0 0.0 xyz
      dof rx ry rz
   end
   begin
      id 24
      name LeftLeg
      direction 0.000000 -1.000000 0.000000
      length 14.435119
      axis 0.0 0.0 0.0 xyz
      dof rx ry rz
   end
   begin
      id 25
      name LeftFoot
      direction 0.000000 -0.258819 0.965926
      length 4.938895
      axis 15.0 0.0 0.0 xyz
      dof rx ry rz
   end
   begin
      id 26
      name LeftToeBase
      direction 0.000000 0.000000 1.000000
      length 2.952750
      axis 0.0 0.0 0.0 xyz
      dof rx ry rz
   end
   begin
      id 27
      name RightUpLeg
      direction 0.000000 -1.000000 0.000000
      length 15.713025
      axis 0.0 0.0 0.0 xyz
      dof rx ry rz
   end
   begin
      id 28
      name RightLeg
      direction 0.000000 -1.000000 0.000000
      length 14.435119
      axis 0.0 0.0 0.0 xyz
      dof rx ry rz
   end
   begin
      id 29
      name RightFoot
      direction 0.000000 -0.258819 0.965926
      length 4.938895
      axis 15.0 0.0 0.0 xyz
      dof rx ry rz
   end
   begin
      id 30
      name RightToeBase
      direction 0.000000 0.000000 1.000000
      length 2.952750
      axis 0.0 0.0 0.0 xyz
      dof rx ry rz
   end
:hierarchy
   begin
      root Spine_dum LeftUpLeg_dum RightUpLeg_dum
      Spine_dum Spine
      LeftUpLeg_dum LeftUpLeg
      RightUpLeg_dum RightUpLeg
      Spine Spine_dum1 Spine_dum2 Spine_dum3
      Spine_dum1 Head
      Spine_dum2 LeftShoulder
      Spine_dum3 RightShoulder
      LeftShoulder LeftArm
      LeftArm LeftForeArm
      LeftForeArm LeftHand
      LeftHand LeftHand_dum1 LeftHand_dum2
      LeftHand_dum1 LeftHandThumb1
      RightShoulder RightArm
      RightArm RightForeArm
      RightForeArm RightHand
      RightHand RightHand_dum1 RightHand_dum2
      RightHand_dum1 RightHandThumb1
      LeftUpLeg LeftLeg
      LeftLeg LeftFoot
      LeftFoot LeftToeBase
      RightUpLeg RightLeg
      RightLeg RightFoot
      RightFoot RightToeBase
   end

# File created by Blade
# Date/Time:  Tue Sep 23 19:06:47 2014
# Frame Rate: 120.000 fps
#------------------------------------------------------
:FULLY-SPECIFIED
:DEGREES
175
root 1.861941 32.495027 -8.022905 25.537025 -4.642000 -22.329999
Spine 1.040248 21.409909 16.645401
Head -43.756314 -8.519023 6.423161
LeftShoulder -22.075173 45.003077 18.323503
LeftArm 58.448518 -20.621626 -59.669474
LeftForeArm 92.109728 -0.000000 3.097236
LeftHand -14.835095 0.000000 62.826435
LeftHandThumb1 -26.253704 0.000000 33.147579
RightShoulder 5.025168 -37.914524 -7.680546
RightArm 67.315388 14.405574 97.687255
RightForeArm 100.894278 0.000000 -9.347361
RightHand 7.030095 -0.000000 26.524001
RightHandThumb1 -24.326973 -0.000000 -32.862282
LeftUpLeg -40.813693 9.087930 14.151350
LeftLeg 31.569663 -0.000000 -0.000000
LeftFoot -17.104675 6.388037 0.650121
LeftToeBase 3.488801 -0.000000 -0.000000
RightUpLeg -150.285093 -11.907727 36.985825
RightLeg 107.798580 -0.000000 -0.000000
RightFoot 40.540536 5.048681 23.741345
RightToeBase 31.396095 -0.000000 -0.000000
176
root 1.871866 32.485079 -8.023617 25.009253 -4.684777 -22.411997
Spine 1.931683 21.544950 16.912332
Head -44.500409 -8.574088 6.550752
LeftShoulder -22.225159 44.900111 18.106971
LeftArm 58.463272 -20.841746 -59.757655
LeftForeArm 92.170335 -0.000000 3.216913
LeftHand -15.129738 -0.000000 63.051678
LeftHandThumb1 -26.253704 0.000000 33.147579
RightShoulder 5.258181 -37.722211 -8.007023
RightArm 67.448721 15.854002 98.932621
RightForeArm 100.183256 -0.000000 -8.159350
RightHand 6.477609 -0.000000 27.949709
RightHandThumb1 -24.326973 -0.000000 -32.862282
LeftUpLeg -40.348452 9.049070 14.271606
LeftLeg 31.739812 -0.000000 -0.000000
LeftFoot -17.238845 6.433384 0.580195
LeftToeBase 2.858799 -0.000000 -0.000000
RightUpLeg -150.167004 -12.016449 37.047388
RightLeg 108.263284 -0.000000 -0.000000
RightFoot 40.638415 4.924574 23.909688
RightToeBase 31.625357 -0.000000 -0.000000
177
root 1.880234 32.477896 -8.028893 24.643381 -4.737045 -22.453984
Spine 2.607172 21.734602 17.030102
Head -45.155062 -8.573086 6.581778
LeftShoulder -22.384308 44.842100 17.897741
LeftArm 58.619652 -21.048785 -59.781781
LeftForeArm 93.278382 0.000000 3.076031
LeftHand -16.271945 -0.000000 63.647718
LeftHandThumb1 -26.253704 0.000000 33.147579
RightShoulder 5.498454 -37.452786 -8.231282
RightArm 67.486425 17.123252 99.656508
RightForeArm 99.829501 -0.000000 -6.938687
RightHand 6.372395 -0.000000 29.389160
RightHandThumb1 -24.326973 -0.000000 -32.862282
LeftUpLeg -40.021224 9.000423 14.354853
LeftLeg 31.853880 -0.000000 -0.000000
LeftFoot -17.353821 6.431570 0.389015
LeftToeBase 2.591732 -0.000000 -0.000000
RightUpLeg -150.102550 -12.068007 37.066690
RightLeg 108.711124 -0.000000 -0.000000
RightFoot 40.693707 4.992445 23.946336
RightToeBase 31.908172 -0.000000 -0.000000
178
root 1.889149 32.474033 -8.041638 24.467471 -4.733461 -22.491734
Spine 3.058264 21.962234 17.098137
Head -45.766795 -8.679021 6.616058
LeftShoulder -22.439252 44.747783 17.832231
LeftArm 58.650831 -21.233495 -60.028230
LeftForeArm 93.019364 0.000000 3.389560
LeftHand -16.082420 -0.000000 63.581707
LeftHandThumb1 -26.253704 0.000000 33.147579
RightShoulder 5.696579 -37.241854 -8.443618
RightArm 67.661591 18.615991 100.886208
RightForeArm 98.612733 -0.000000 -5.320109
RightHand 5.937764 0.000000 30.467130
RightHandThumb1 -24.326973 -0.000000 -32.862282
LeftUpLeg -39.911039 8.942558 14.425755
LeftLeg 31.952170 -0.000000 -0.000000
LeftFoot -17.393264 6.434493 0.263232
LeftToeBase 2.395939 -0.000000 -0.000000
RightUpLeg -150.163095 -12.099543 37.134511
RightLeg 109.138169 -0.000000 -0.000000
RightFoot 40.865310 5.034204 23.939556
RightToeBase 32.174841 -0.000000 -0.000000
179
root 1.895376 32.472080 -8.049633 24.122919 -4.753202 -22.519736
Spine 3.707796 22.116897 17.212919
Head -46.427131 -8.759542 6.656554
LeftShoulder -22.535807 44.576551 17.763223
LeftArm 58.669073 -21.346524 -60.260548
LeftForeArm 92.997489 -0.000000 3.628930
LeftHand -16.197122 -0.000000 63.610941
LeftHandThumb1 -26.253704 0.000000 33.147579
RightShoulder 5.988459 -37.031346 -8.720145
RightArm 68.285870 20.513048 103.422796
RightForeArm 96.018310 0.000000 -3.433078
RightHand 5.951137 -0.000000 31.832763
RightHandThumb1 -24.326973 -0.000000 -32.862282
LeftUpLeg -39.602804 8.880144 14.503428
LeftLeg 32.016827 -0.000000 -0.000000
LeftFoot -17.449173 6.398310 0.124003
LeftToeBase 2.220211 -0.000000 -0.000000
RightUpLeg -149.998291 -12.299939 37.104173
RightLeg 109.568123 -0.000000 -0.000000
RightFoot 41.108296 5.166989 24.024641
RightToeBase 32.175355 -0.000000 -0.000000
180
root 1.900646 32.472758 -8.062050 23.876556 -4.775140 -22.529648
Spine 4.260167 22.332282 17.310588
Head -47.075652 -8.919542 6.521126
LeftShoulder -22.529287 44.449834 17.631540
LeftArm 58.703667 -21.569320 -60.368884
LeftForeArm 93.405358 -0.000000 3.714901
LeftHand -16.451351 -0.000000 63.845315
LeftHandThumb1 -26.253704 0.000000 33.147579
RightShoulder 6.122880 -36.921646 -8.915530
RightArm 68.432269 21.971174 104.892376
RightForeArm 94.401401 -0.000000 -0.685177
RightHand 5.072991 -0.000000 32.545978
RightHandThumb1 -24.326973 -0.000000 -32.862282
LeftUpLeg -39.398745 8.850214 14.551161
LeftLeg 32.077639 -0.000000 -0.000000
LeftFoot -17.485104 6.293078 -0.093733
LeftToeBase 2.102677 -0.000000 -0.000000
RightUpLeg -149.845224 -12.421846 37.077850
RightLeg 110.050803 -0.000000 -0.000000
RightFoot 41.095984 5.085003 24.013550
RightToeBase 32.465287 -0.000000 -0.000000
181
root 1.907260 32.474599 -8.073922 23.626330 -4.829914 -22.510352
Spine 4.823615 22.537755 17.378904
Head -47.744627 -9.135184 6.412217
LeftShoulder -22.503663 44.301821 17.562126
LeftArm 58.617629 -21.688977 -60.523920
LeftForeArm 92.804666 -0.000000 4.113173
LeftHand -15.993196 -0.000000 63.692067
LeftHandThumb1 -26.253704 0.000000 33.147579
RightShoulder 6.291964 -36.929805 -9.102778
RightArm 68.946932 23.475974 107.057838
RightForeArm 91.520999 0.000000 2.378814
RightHand 4.357012 -0.000000 33.108967
RightHandThumb1 -24.326973 -0.000000 -32.862282
LeftUpLeg -39.169618 8.832241 14.563167
LeftLeg 32.109769 -0.000000 -0.000000
LeftFoot -17.541388 6.159860 -0.338137
LeftToeBase 2.083984 -0.000000 -0.000000
RightUpLeg -149.646337 -12.581889 37.012616
RightLeg 110.295584 -0.000000 -0.000000
RightFoot 41.795655 4.829179 24.066687
RightToeBase 32.449364 -0.000000 -0.000000
182
root 1.910390 32.479902 -8.093373 23.542516 -4.880318 -22.542264
Spine 5.211681 22.783447 17.422780
Head -48.377643 -9.314004 6.290764
LeftShoulder -22.493980 44.204330 17.491818
LeftArm 58.563868 -21.785502 -60.644673
LeftForeArm 92.760912 -0.000000 4.417291
LeftHand -15.959772 -0.000000 63.643933
LeftHandThumb1 -26.253704 0.000000 33.147579
RightShoulder 6.348120 -36.948405 -9.193423
RightArm 69.551138 24.633531 109.107743
RightForeArm 88.932726 -0.000000 5.187925
RightHand 3.950020 -0.000000 34.018983
RightHandThumb1 -24.326973 -0.000000 -32.862282
LeftUpLeg -39.128665 8.908906 14.597295
LeftLeg 32.175029 -0.000000 -0.000000
LeftFoot -17.545216 5.956477 -0.584724
LeftToeBase 2.047932 -0.000000 -0.000000
RightUpLeg -149.524955 -12.634553 36.981948
RightLeg 110.129820 -0.000000 -0.000000
RightFoot 43.752445 4.134520 24.010826
RightToeBase 32.555646 -0.000000 -0.000000
183
root 1.911825 32.483543 -8.107597 23.260709 -4.898213 -22.572930
Spine 5.802613 22.929106 17.554027
Head -48.977884 -9.456784 6.123251
LeftShoulder -22.428039 44.050580 17.500641
LeftArm 58.456005 -21.826568 -60.755803
LeftForeArm 92.830544 0.000000 4.655726
LeftHand -16.160728 -0.000000 63.673430
LeftHandThumb1 -26.253704 0.000000 33.147579
RightShoulder 6.389523 -37.066097 -9.228663
RightArm 69.955380 25.274434 109.901425
RightForeArm 88.069362 -0.000000 6.694607
RightHand 3.971272 -0.000000 35.886253
RightHandThumb1 -24.326973 -0.000000 -32.862282
LeftUpLeg -38.902224 8.950806 14.655622
LeftLeg 32.247848 -0.000000 -0.000000
LeftFoot -17.556899 5.728927 -0.734345
LeftToeBase 2.105695 -0.000000 -0.000000
RightUpLeg -149.205306 -12.904471 36.842630
RightLeg 109.966516 -0.000000 -0.000000
RightFoot 45.294049 3.572392 23.869519
RightToeBase 33.238097 -0.000000 -0.000000
184
root 1.912709 32.488981 -8.119326 22.885382 -4.924586 -22.657892
Spine 6.500344 22.997176 17.798990
Head -49.490002 -9.466314 5.884040
LeftShoulder -22.370277 43.891864 17.490220
LeftArm 58.275068 -21.800930 -60.779577
LeftForeArm 92.865688 0.000000 4.883037
LeftHand -16.269598 -0.000000 63.823946
LeftHandThumb1 -26.253704 0.000000 33.147579
RightShoulder 6.537859 -37.211649 -9.348831
RightArm 70.026270 25.631450 110.090541
RightForeArm 86.554069 -0.000000 7.214990
RightHand 3.424667 -0.000000 36.879081
RightHandThumb1 -24.326973 -0.000000 -32.862282
LeftUpLeg -38.568617 9.025148 14.763902
LeftLeg 32.315325 -0.000000 -0.000000
LeftFoot -17.560684 5.484600 -0.867812
LeftToeBase 2.029948 -0.000000 -0.000000
RightUpLeg -148.738196 -13.054158 36.770494
RightLeg 109.648431 -0.000000 -0.000000
RightFoot 45.775154 2.301967 23.774816
RightToeBase 34.514430 -0.000000 -0.000000
